<svg width="20" height="20" viewBox="0 0 20 20" fill="none" xmlns="http://www.w3.org/2000/svg">
<path d="M4.20195 12.6366C4.20195 13.793 3.25733 14.7376 2.10098 14.7376C0.944626 14.7376 0 13.793 0 12.6366C0 11.4803 0.944626 10.5356 2.10098 10.5356H4.20195V12.6366Z" fill="#A9ABC1"/>
<path d="M5.26062 12.6366C5.26062 11.4803 6.20525 10.5356 7.3616 10.5356C8.51795 10.5356 9.46257 11.4803 9.46257 12.6366V17.8972C9.46257 19.0536 8.51795 19.9982 7.3616 19.9982C6.20525 19.9982 5.26062 19.0536 5.26062 17.8972V12.6366Z" fill="#A9ABC1"/>
<path d="M7.3616 4.20195C6.20525 4.20195 5.26062 3.25733 5.26062 2.10098C5.26062 0.944626 6.20525 0 7.3616 0C8.51795 0 9.46257 0.944626 9.46257 2.10098V4.20195H7.3616Z" fill="#A9ABC1"/>
<path d="M7.36156 5.26074C8.51792 5.26074 9.46254 6.20537 9.46254 7.36172C9.46254 8.51807 8.51792 9.4627 7.36156 9.4627H2.10098C0.944626 9.4627 0 8.51807 0 7.36172C0 6.20537 0.944626 5.26074 2.10098 5.26074H7.36156Z" fill="#A9ABC1"/>
<path d="M15.7982 7.36172C15.7982 6.20537 16.7428 5.26074 17.8992 5.26074C19.0555 5.26074 20.0002 6.20537 20.0002 7.36172C20.0002 8.51807 19.0555 9.4627 17.8992 9.4627H15.7982V7.36172Z" fill="#A9ABC1"/>
<path d="M14.7394 7.36156C14.7394 8.51792 13.7948 9.46254 12.6385 9.46254C11.4821 9.46254 10.5375 8.51792 10.5375 7.36156V2.10098C10.5375 0.944626 11.4821 0 12.6385 0C13.7948 0 14.7394 0.944626 14.7394 2.10098V7.36156Z" fill="#A9ABC1"/>
<path d="M12.6386 15.7964C13.7949 15.7964 14.7396 16.741 14.7396 17.8974C14.7396 19.0537 13.7949 19.9983 12.6386 19.9983C11.4822 19.9983 10.5376 19.0537 10.5376 17.8974V15.7964H12.6386Z" fill="#A9ABC1"/>
<path d="M12.6386 14.7376C11.4822 14.7376 10.5376 13.793 10.5376 12.6366C10.5376 11.4803 11.4822 10.5356 12.6386 10.5356H17.8992C19.0555 10.5356 20.0001 11.4803 20.0001 12.6366C20.0001 13.793 19.0555 14.7376 17.8992 14.7376H12.6386Z" fill="#A9ABC1"/>
</svg>
