<svg width="16" height="16" viewBox="0 0 16 16" fill="none" xmlns="http://www.w3.org/2000/svg">
<path opacity="0.6" fill-rule="evenodd" clip-rule="evenodd" d="M12.6584 1.94385C13.9571 3.01812 14.1259 4.92754 13.0354 6.20866L7.12381 13.1536C7.08347 13.2043 7.03313 13.2475 6.97494 13.2801C6.92378 13.3088 6.86839 13.3281 6.81148 13.338L2.78144 14.1614C2.62936 14.1925 2.47126 14.1532 2.35233 14.0548C2.2334 13.9564 2.16672 13.8098 2.17135 13.6567L2.29286 9.64409C2.28089 9.51575 2.31889 9.3829 2.4096 9.27634L8.33228 2.31838C9.42278 1.03727 11.3596 0.86958 12.6584 1.94385ZM3.30436 9.78168L9.10977 2.9615C9.83973 2.10395 11.1362 1.99171 12.0056 2.71079C12.8749 3.42988 12.9879 4.70799 12.2579 5.56554L6.44887 12.39L3.20531 13.0527L3.30436 9.78168Z" fill="#282B42"/>
<path d="M15.4453 14.9987L2.99902 14.9987" stroke="#7E808E" stroke-linecap="round"/>
</svg>
