<svg width="18" height="18" viewBox="0 0 18 18" fill="none" xmlns="http://www.w3.org/2000/svg">
<path fill-rule="evenodd" clip-rule="evenodd" d="M15.3546 2.19467C16.8155 3.40304 17.0054 5.55081 15.7788 6.99185L9.12918 14.8038C9.0838 14.8608 9.02717 14.9094 8.96172 14.946C8.90417 14.9783 8.84187 15.0001 8.77785 15.0111L4.24474 15.9373C4.07367 15.9723 3.89584 15.9281 3.76206 15.8175C3.62828 15.7068 3.55328 15.5418 3.5585 15.3697L3.69518 10.8561C3.6817 10.7118 3.72445 10.5623 3.82648 10.4425L10.4885 2.61595C11.7151 1.17491 13.8938 0.986297 15.3546 2.19467ZM4.83294 11.0109L11.363 3.33935C12.1841 2.37476 13.6424 2.2485 14.6203 3.05735C15.5982 3.8662 15.7253 5.30386 14.9042 6.26846L8.36998 13.9448L4.72152 14.6903L4.83294 11.0109Z" fill="#696D8B"/>
</svg>
