<svg width="18" height="18" viewBox="0 0 18 18" fill="none" xmlns="http://www.w3.org/2000/svg">
<path fill-rule="evenodd" clip-rule="evenodd" d="M8.99953 1.51492C9.60238 0.602171 10.6375 0 11.8132 0H12.467C13.9669 0 15.1827 1.21586 15.1827 2.7157C15.1827 3.31995 14.9854 3.87811 14.6516 4.32924H17.449C17.7533 4.32924 18 4.57594 18 4.88026V8.66761C18 8.97193 17.7533 9.21863 17.449 9.21863H17.0701V17.449C17.0701 17.7533 16.8234 18 16.5191 18H1.47988C1.17556 18 0.928861 17.7533 0.928861 17.449V9.21863H0.55102C0.2467 9.21863 0 8.97193 0 8.66761V4.88026C0 4.57594 0.2467 4.32924 0.55102 4.32924H3.34744C3.01369 3.87811 2.81634 3.31995 2.81634 2.7157C2.81634 1.21586 4.0322 0 5.53205 0H6.18588C7.36161 0 8.39668 0.602171 8.99953 1.51492ZM11.9681 9.21863H15.9681V16.898H11.9681V9.21863ZM11.9681 8.11659H16.898V5.43128H12.4934L12.467 5.43141H11.9681V8.11659ZM10.866 5.43141V8.11659H7.13524V5.43141H8.99468H9.00439H10.866ZM6.58422 4.32924H8.44366V3.36954C8.44366 3.3147 8.44497 3.26017 8.44756 3.20598C8.36374 2.03002 7.38318 1.10204 6.18588 1.10204H5.53205C4.64084 1.10204 3.91838 1.8245 3.91838 2.7157C3.91838 3.60013 4.6299 4.31838 5.51176 4.32924H6.58422ZM9.55541 4.32924V3.36954C9.55541 3.3147 9.5541 3.26017 9.55151 3.20598C9.63533 2.03002 10.6159 1.10204 11.8132 1.10204H12.467C13.3582 1.10204 14.0807 1.8245 14.0807 2.7157C14.0807 3.60013 13.3692 4.31838 12.4873 4.32924H11.417H9.55541ZM6.0332 5.43141V8.11659H1.10204V5.43128H5.50572L5.53204 5.43141H6.0332ZM6.0332 9.21863H2.0309V16.898H6.0332V9.21863ZM7.13524 9.21863H10.866V16.8979H7.13524V9.21863Z" fill="#8D8FA9"/>
</svg>
