<svg width="18" height="18" viewBox="0 0 18 18" fill="none" xmlns="http://www.w3.org/2000/svg">
<path fill-rule="evenodd" clip-rule="evenodd" d="M1.05882 9C1.05882 4.61421 4.61421 1.05882 9 1.05882C13.3858 1.05882 16.9412 4.61421 16.9412 9C16.9412 13.3858 13.3858 16.9412 9 16.9412C4.61421 16.9412 1.05882 13.3858 1.05882 9ZM9 0C4.02944 0 0 4.02944 0 9C0 13.9706 4.02944 18 9 18C13.9706 18 18 13.9706 18 9C18 4.02944 13.9706 0 9 0ZM7.60391 8.95004L7.66019 11.2483H8.68726L8.72947 9.778C9.39542 9.778 9.98633 9.67807 10.5022 9.47822C11.0275 9.27837 11.4355 8.95955 11.7262 8.52178C12.0264 8.08401 12.1765 7.513 12.1765 6.80876C12.1765 6.2092 12.0452 5.69054 11.7825 5.25277C11.5199 4.815 11.1541 4.47715 10.6851 4.23923C10.2161 4.00131 9.67681 3.88235 9.06713 3.88235C8.45746 3.88235 7.92282 4.00131 7.46322 4.23923C7.00362 4.47715 6.6425 4.81024 6.37987 5.23849C6.12662 5.66675 6 6.16638 6 6.73739H7.12555C7.12555 6.1759 7.29908 5.72861 7.64612 5.39552C7.99317 5.06243 8.46684 4.89589 9.06713 4.89589C9.65805 4.89589 10.1317 5.06719 10.4881 5.4098C10.8539 5.7524 11.0368 6.21872 11.0368 6.80876C11.0368 7.41784 10.8962 7.87464 10.6148 8.17918C10.3334 8.48372 9.96288 8.68832 9.50328 8.79301C9.05306 8.89769 8.56532 8.95004 8.04006 8.95004H7.60391ZM7.57577 13.8892C7.73523 14.0415 7.9322 14.1176 8.16669 14.1176C8.40118 14.1176 8.59346 14.0415 8.74354 13.8892C8.89361 13.7275 8.96865 13.5324 8.96865 13.304C8.96865 13.0756 8.89361 12.8852 8.74354 12.733C8.59346 12.5712 8.40118 12.4903 8.16669 12.4903C7.9322 12.4903 7.73523 12.5712 7.57577 12.733C7.4257 12.8852 7.35066 13.0756 7.35066 13.304C7.35066 13.5324 7.4257 13.7275 7.57577 13.8892Z" fill="#8D8FA9"/>
</svg>
