<svg width="12" height="12" viewBox="0 0 12 12" fill="none" xmlns="http://www.w3.org/2000/svg">
<circle cx="6" cy="6" r="6" fill="#ABACC6"/>
<path d="M6.11778 4.2989C5.96816 4.2989 5.84346 4.25446 5.74371 4.16557C5.64895 4.07174 5.60156 3.95569 5.60156 3.81742C5.60156 3.67915 5.64895 3.56557 5.74371 3.47668C5.84346 3.38285 5.96816 3.33594 6.11778 3.33594C6.26741 3.33594 6.38961 3.38285 6.48438 3.47668C6.58413 3.56557 6.63401 3.67915 6.63401 3.81742C6.63401 3.95569 6.58413 4.07174 6.48438 4.16557C6.38961 4.25446 6.26741 4.2989 6.11778 4.2989ZM6.11778 8.66927C5.89879 8.66927 5.72127 8.49174 5.72127 8.27275V5.39172C5.72127 5.17272 5.89879 4.9952 6.11778 4.9952C6.33678 4.9952 6.5143 5.17272 6.5143 5.39172V8.27275C6.5143 8.49174 6.33678 8.66927 6.11778 8.66927Z" fill="white"/>
</svg>
