<svg width="16" height="16" viewBox="0 0 16 16" fill="none" xmlns="http://www.w3.org/2000/svg">
<path fill-rule="evenodd" clip-rule="evenodd" d="M0.97968 6.98747C0.97968 3.66946 3.66946 0.97968 6.98747 0.97968C10.3055 0.97968 12.9953 3.66946 12.9953 6.98747C12.9953 10.3055 10.3055 12.9953 6.98747 12.9953C3.66946 12.9953 0.97968 10.3055 0.97968 6.98747ZM6.98747 0C3.1284 0 0 3.1284 0 6.98747C0 10.8465 3.1284 13.9749 6.98747 13.9749C8.74071 13.9749 10.3431 13.3292 11.5699 12.2626L15.1638 15.8565C15.3551 16.0478 15.6652 16.0478 15.8565 15.8565C16.0478 15.6652 16.0478 15.3551 15.8565 15.1638L12.2626 11.5699C13.3292 10.3431 13.9749 8.74071 13.9749 6.98747C13.9749 3.1284 10.8465 0 6.98747 0Z" fill="#696D8B"/>
</svg>
