<svg width="12" height="11" viewBox="0 0 12 11" fill="none" xmlns="http://www.w3.org/2000/svg">
<path d="M5.28555 0.620294C5.60365 0.0598373 6.39635 0.0598368 6.71445 0.620293L11.8875 9.73435C12.2065 10.2963 11.8093 11 11.173 11H0.826965C0.190745 11 -0.206463 10.2963 0.11251 9.73435L5.28555 0.620294Z" fill="#DD9553"/>
<path fill-rule="evenodd" clip-rule="evenodd" d="M5.99394 8.06318C5.68856 8.06318 5.441 8.3159 5.441 8.62766C5.441 8.93941 5.68856 9.19214 5.99394 9.19214C6.29932 9.19214 6.54688 8.93941 6.54688 8.62766C6.54688 8.3159 6.29932 8.06318 5.99394 8.06318ZM5.63735 7.01487C5.63735 7.21633 5.79724 7.37964 5.99446 7.37964C6.19168 7.37964 6.35156 7.21633 6.35156 7.01487V3.78741C6.35156 3.58596 6.19168 3.42264 5.99446 3.42264C5.79724 3.42264 5.63735 3.58596 5.63735 3.78741V7.01487Z" fill="white"/>
</svg>
