<svg width="412" height="203" viewBox="0 0 412 203" fill="none" xmlns="http://www.w3.org/2000/svg">
<rect x="8.8855" width="333.549" height="203" rx="5" fill="#F4F4F4"/>
<path d="M8.8855 9.99999C8.8855 4.47715 13.3627 0 18.8855 0H332.434C337.957 0 342.434 4.47715 342.434 10V17.771H8.8855V9.99999Z" fill="#EEF0FF"/>
<path d="M8.8855 5C8.8855 2.23857 11.1241 0 13.8855 0H73.6027C76.3641 0 78.6027 2.23858 78.6027 5V17.771H8.8855V5Z" fill="white"/>
<path d="M17.0875 6.00635C17.0875 5.70907 17.3364 5.46777 17.6432 5.46777H24.0504C24.3573 5.46777 24.606 5.70907 24.606 6.00635V12.4478C24.606 12.7452 24.3573 12.9863 24.0504 12.9863H17.6432C17.3364 12.9863 17.0875 12.7452 17.0875 12.4479V6.00626V6.00635Z" fill="#0076B4"/>
<path d="M19.3729 11.76V8.3751H18.2478V11.76H19.373H19.3729ZM18.8106 7.91304C19.2029 7.91304 19.4471 7.65312 19.4471 7.3283C19.4397 6.99607 19.2029 6.74341 18.8181 6.74341C18.433 6.74341 18.1815 6.99607 18.1815 7.32827C18.1815 7.65309 18.4256 7.91301 18.8032 7.91301H18.8105L18.8106 7.91304ZM19.9957 11.76H21.1206V9.86991C21.1206 9.76888 21.128 9.66758 21.1577 9.59542C21.239 9.39322 21.4241 9.1839 21.735 9.1839C22.142 9.1839 22.3049 9.49428 22.3049 9.94935V11.76H23.4299V9.81919C23.4299 8.77955 22.8749 8.29575 22.1347 8.29575C21.5278 8.29575 21.2613 8.63493 21.1132 8.86595H21.1207V8.37522H19.9957C20.0104 8.69276 19.9956 11.7601 19.9956 11.7601L19.9957 11.76Z" fill="white"/>
<rect x="28.707" y="7.51868" width="42.3771" height="3.41751" fill="#EEF0FF"/>
<rect x="8.8855" y="17.7712" width="333.549" height="17.0875" fill="white"/>
<rect x="8.8855" y="35.5422" width="333.549" height="17.0875" fill="white"/>
<rect x="49.8956" y="40.3259" width="27.3401" height="7.51852" rx="3.75926" fill="#EEF3F8"/>
<rect x="88.1716" y="40.3259" width="27.3401" height="7.51852" rx="3.75926" fill="#EEF3F8"/>
<rect x="120.98" y="40.3259" width="27.3401" height="7.51852" rx="3.75926" fill="#EEF3F8"/>
<rect x="153.788" y="40.3259" width="27.3401" height="7.51852" rx="3.75926" fill="#EEF3F8"/>
<rect x="192.064" y="40.3259" width="27.3401" height="7.51852" rx="3.75926" fill="#EEF3F8"/>
<path d="M186.596 41.0099V47.8449" stroke="#DAE6F1"/>
<path d="M82.7036 41.0099V47.8449" stroke="#DAE6F1"/>
<rect x="62.8822" y="22.5551" width="48.5286" height="7.51852" rx="1" fill="#EEF3F8"/>
<path d="M49.8956 23.094C49.8956 22.7967 50.1445 22.5554 50.4513 22.5554H56.8585C57.1654 22.5554 57.4141 22.7967 57.4141 23.094V29.5355C57.4141 29.8328 57.1654 30.0739 56.8585 30.0739H50.4513C50.1445 30.0739 49.8956 29.8328 49.8956 29.5355V23.0939V23.094Z" fill="#0076B4"/>
<path d="M52.181 28.848V25.4631H51.0559V28.848H52.1811H52.181ZM51.6187 25.001C52.011 25.001 52.2552 24.7411 52.2552 24.4163C52.2478 24.0841 52.011 23.8314 51.6262 23.8314C51.2411 23.8314 50.9896 24.0841 50.9896 24.4163C50.9896 24.7411 51.2337 25.001 51.6113 25.001H51.6186L51.6187 25.001ZM52.8038 28.848H53.9287V26.9579C53.9287 26.8569 53.9361 26.7556 53.9658 26.6834C54.0471 26.4812 54.2322 26.2719 54.5431 26.2719C54.9501 26.2719 55.113 26.5823 55.113 27.0374V28.848H56.238V26.9072C56.238 25.8676 55.683 25.3838 54.9428 25.3838C54.336 25.3838 54.0694 25.7229 53.9213 25.954H53.9288V25.4632H52.8038C52.8185 25.7808 52.8037 28.8481 52.8037 28.8481L52.8038 28.848Z" fill="white"/>
<rect x="279.552" y="22.5558" width="7.51852" height="7.51852" rx="1" fill="#EEF3F8"/>
<rect x="250.845" y="22.5558" width="7.51852" height="7.51852" rx="1" fill="#EEF3F8"/>
<rect x="222.138" y="22.5558" width="7.51852" height="7.51852" rx="1" fill="#EEF3F8"/>
<rect x="265.199" y="22.5558" width="7.51852" height="7.51852" rx="1" fill="#EEF3F8"/>
<rect x="236.492" y="22.5558" width="7.51852" height="7.51852" rx="1" fill="#EEF3F8"/>
<circle cx="298.348" cy="26.3146" r="4.44276" fill="#EEF3F8"/>
<rect x="53.3131" y="64.9331" width="190.697" height="123.714" rx="5" fill="white" stroke="#F0ECEC"/>
<path d="M71.7677 92.9558H244.01" stroke="#F0ECEC"/>
<path d="M56.7306 74.3578C56.7306 77.6759 59.4205 80.3658 62.7386 80.3658C66.0567 80.3658 68.7466 77.6759 68.7466 74.3578C68.7466 71.0397 66.0567 68.3499 62.7386 68.3499C59.4205 68.3499 56.7306 71.0397 56.7306 74.3578Z" fill="#6F74E1"/>
<path fill-rule="evenodd" clip-rule="evenodd" d="M62.7394 71.8256C63.4799 71.8256 64.0801 72.4258 64.0801 73.1662C64.0801 73.9066 63.4799 74.5068 62.7394 74.5068C61.999 74.5068 61.3988 73.9066 61.3988 73.1662C61.3988 72.4258 61.999 71.8256 62.7394 71.8256ZM64.6759 73.1662C64.6759 72.0967 63.8089 71.2297 62.7394 71.2297C61.67 71.2297 60.803 72.0967 60.803 73.1662C60.803 74.2357 61.67 75.1026 62.7394 75.1026C63.8089 75.1026 64.6759 74.2357 64.6759 73.1662Z" fill="white"/>
<path fill-rule="evenodd" clip-rule="evenodd" d="M62.7394 75.1033C63.9186 75.1033 64.8745 76.0592 64.8745 77.2383C64.8745 77.4029 65.0079 77.5363 65.1724 77.5363C65.337 77.5363 65.4703 77.4029 65.4703 77.2383C65.4703 75.7301 64.2477 74.5074 62.7394 74.5074C61.2312 74.5074 60.0085 75.7301 60.0085 77.2383C60.0085 77.4029 60.1419 77.5363 60.3065 77.5363C60.471 77.5363 60.6044 77.4029 60.6044 77.2383C60.6044 76.0592 61.5603 75.1033 62.7394 75.1033Z" fill="white"/>
<rect x="71.3066" y="69.3722" width="31.1977" height="2.81291" rx="1" fill="#E6EDF4"/>
<rect x="71.3066" y="75.254" width="39.6364" height="2.04575" rx="1" fill="#EEF3F8"/>
<rect x="71.3066" y="80.3689" width="39.6364" height="2.04575" rx="1" fill="#EEF3F8"/>
<rect x="71.3066" y="85.4838" width="88.4788" height="2.04575" rx="1" fill="#EEF3F8"/>
<path d="M214.62 72.8247C214.62 70.7769 216.28 69.1168 218.327 69.1168H233.159C235.207 69.1168 236.867 70.7769 236.867 72.8247C236.867 74.8726 235.207 76.5327 233.159 76.5327H218.327C216.28 76.5327 214.62 74.8726 214.62 72.8247Z" fill="white"/>
<path fill-rule="evenodd" clip-rule="evenodd" d="M214.338 72.8245C214.338 70.6823 216.075 68.9457 218.217 68.9457H233.049C235.191 68.9457 236.928 70.6823 236.928 72.8245C236.928 74.9667 235.191 76.7033 233.049 76.7033H218.217C216.075 76.7033 214.338 74.9667 214.338 72.8245ZM218.217 69.2874C216.264 69.2874 214.68 70.871 214.68 72.8245C214.68 74.7779 216.264 76.3615 218.217 76.3615H233.049C235.002 76.3615 236.586 74.7779 236.586 72.8245C236.586 70.871 235.002 69.2874 233.049 69.2874H218.217Z" fill="#0A66C2"/>
<rect x="218.037" y="71.7677" width="15.7205" height="2.0505" rx="1.02525" fill="#0A66C2" fill-opacity="0.4"/>
<path d="M71.7677 149.003H244.01" stroke="#F0ECEC"/>
<path d="M56.7306 130.405C56.7306 133.723 59.4205 136.413 62.7386 136.413C66.0567 136.413 68.7466 133.723 68.7466 130.405C68.7466 127.087 66.0567 124.397 62.7386 124.397C59.4205 124.397 56.7306 127.087 56.7306 130.405Z" fill="#6FE17A"/>
<path fill-rule="evenodd" clip-rule="evenodd" d="M62.7394 127.873C63.4799 127.873 64.0801 128.474 64.0801 129.214C64.0801 129.954 63.4799 130.555 62.7394 130.555C61.999 130.555 61.3988 129.954 61.3988 129.214C61.3988 128.474 61.999 127.873 62.7394 127.873ZM64.6759 129.214C64.6759 128.145 63.8089 127.278 62.7394 127.278C61.67 127.278 60.803 128.145 60.803 129.214C60.803 130.284 61.67 131.151 62.7394 131.151C63.8089 131.151 64.6759 130.284 64.6759 129.214Z" fill="white"/>
<path fill-rule="evenodd" clip-rule="evenodd" d="M62.7394 131.151C63.9186 131.151 64.8745 132.107 64.8745 133.286C64.8745 133.451 65.0079 133.584 65.1724 133.584C65.337 133.584 65.4703 133.451 65.4703 133.286C65.4703 131.778 64.2477 130.555 62.7394 130.555C61.2312 130.555 60.0085 131.778 60.0085 133.286C60.0085 133.451 60.1419 133.584 60.3065 133.584C60.471 133.584 60.6044 133.451 60.6044 133.286C60.6044 132.107 61.5603 131.151 62.7394 131.151Z" fill="white"/>
<rect x="71.3066" y="125.419" width="31.1977" height="2.81291" rx="1" fill="#E6EDF4"/>
<rect x="71.3066" y="131.301" width="39.6364" height="2.04575" rx="1" fill="#EEF3F8"/>
<rect x="71.3066" y="136.416" width="39.6364" height="2.04575" rx="1" fill="#EEF3F8"/>
<rect x="71.3066" y="141.531" width="88.4788" height="2.04575" rx="1" fill="#EEF3F8"/>
<path d="M214.62 128.872C214.62 126.824 216.28 125.164 218.327 125.164H233.159C235.207 125.164 236.867 126.824 236.867 128.872C236.867 130.92 235.207 132.58 233.159 132.58H218.327C216.28 132.58 214.62 130.92 214.62 128.872Z" fill="white"/>
<path fill-rule="evenodd" clip-rule="evenodd" d="M214.338 128.872C214.338 126.729 216.075 124.993 218.217 124.993H233.049C235.191 124.993 236.928 126.729 236.928 128.872C236.928 131.014 235.191 132.75 233.049 132.75H218.217C216.075 132.75 214.338 131.014 214.338 128.872ZM218.217 125.335C216.264 125.335 214.68 126.918 214.68 128.872C214.68 130.825 216.264 132.409 218.217 132.409H233.049C235.002 132.409 236.586 130.825 236.586 128.872C236.586 126.918 235.002 125.335 233.049 125.335H218.217Z" fill="#0A66C2"/>
<rect x="218.037" y="127.815" width="15.7205" height="2.0505" rx="1.02525" fill="#0A66C2" fill-opacity="0.4"/>
<path d="M71.7677 120.979H244.01" stroke="#F0ECEC"/>
<path d="M56.7306 102.381C56.7306 105.699 59.4205 108.389 62.7386 108.389C66.0567 108.389 68.7466 105.699 68.7466 102.381C68.7466 99.0628 66.0567 96.3729 62.7386 96.3729C59.4205 96.3729 56.7306 99.0628 56.7306 102.381Z" fill="#6FE1BF"/>
<path fill-rule="evenodd" clip-rule="evenodd" d="M62.7394 99.849C63.4799 99.849 64.0801 100.449 64.0801 101.19C64.0801 101.93 63.4799 102.53 62.7394 102.53C61.999 102.53 61.3988 101.93 61.3988 101.19C61.3988 100.449 61.999 99.849 62.7394 99.849ZM64.6759 101.19C64.6759 100.12 63.8089 99.2532 62.7394 99.2532C61.67 99.2532 60.803 100.12 60.803 101.19C60.803 102.259 61.67 103.126 62.7394 103.126C63.8089 103.126 64.6759 102.259 64.6759 101.19Z" fill="white"/>
<path fill-rule="evenodd" clip-rule="evenodd" d="M62.7394 103.127C63.9186 103.127 64.8745 104.083 64.8745 105.262C64.8745 105.426 65.0079 105.56 65.1724 105.56C65.337 105.56 65.4703 105.426 65.4703 105.262C65.4703 103.754 64.2477 102.531 62.7394 102.531C61.2312 102.531 60.0085 103.754 60.0085 105.262C60.0085 105.426 60.1419 105.56 60.3065 105.56C60.471 105.56 60.6044 105.426 60.6044 105.262C60.6044 104.083 61.5603 103.127 62.7394 103.127Z" fill="white"/>
<rect x="71.3066" y="97.3953" width="31.1977" height="2.81291" rx="1" fill="#E6EDF4"/>
<rect x="71.3066" y="103.277" width="39.6364" height="2.04575" rx="1" fill="#EEF3F8"/>
<rect x="71.3066" y="108.392" width="39.6364" height="2.04575" rx="1" fill="#EEF3F8"/>
<rect x="71.3066" y="113.507" width="88.4788" height="2.04575" rx="1" fill="#EEF3F8"/>
<path d="M214.62 100.848C214.62 98.8 216.28 97.1399 218.327 97.1399H233.159C235.207 97.1399 236.867 98.8 236.867 100.848C236.867 102.896 235.207 104.556 233.159 104.556H218.327C216.28 104.556 214.62 102.896 214.62 100.848Z" fill="white"/>
<path fill-rule="evenodd" clip-rule="evenodd" d="M214.338 100.848C214.338 98.7053 216.075 96.9688 218.217 96.9688H233.049C235.191 96.9688 236.928 98.7053 236.928 100.848C236.928 102.99 235.191 104.726 233.049 104.726H218.217C216.075 104.726 214.338 102.99 214.338 100.848ZM218.217 97.3105C216.264 97.3105 214.68 98.8941 214.68 100.848C214.68 102.801 216.264 104.385 218.217 104.385H233.049C235.002 104.385 236.586 102.801 236.586 100.848C236.586 98.8941 235.002 97.3105 233.049 97.3105H218.217Z" fill="#0A66C2"/>
<rect x="218.037" y="99.7908" width="15.7205" height="2.0505" rx="1.02525" fill="#0A66C2" fill-opacity="0.4"/>
<path d="M71.7677 177.026H244.01" stroke="#F0ECEC"/>
<path d="M56.7306 158.428C56.7306 161.746 59.4205 164.436 62.7386 164.436C66.0567 164.436 68.7466 161.746 68.7466 158.428C68.7466 155.11 66.0567 152.42 62.7386 152.42C59.4205 152.42 56.7306 155.11 56.7306 158.428Z" fill="#E1A66F"/>
<path fill-rule="evenodd" clip-rule="evenodd" d="M62.7394 155.896C63.4799 155.896 64.0801 156.496 64.0801 157.236C64.0801 157.977 63.4799 158.577 62.7394 158.577C61.999 158.577 61.3988 157.977 61.3988 157.236C61.3988 156.496 61.999 155.896 62.7394 155.896ZM64.6759 157.236C64.6759 156.167 63.8089 155.3 62.7394 155.3C61.67 155.3 60.803 156.167 60.803 157.236C60.803 158.306 61.67 159.173 62.7394 159.173C63.8089 159.173 64.6759 158.306 64.6759 157.236Z" fill="white"/>
<path fill-rule="evenodd" clip-rule="evenodd" d="M62.7394 159.173C63.9186 159.173 64.8745 160.129 64.8745 161.309C64.8745 161.473 65.0079 161.606 65.1724 161.606C65.337 161.606 65.4703 161.473 65.4703 161.309C65.4703 159.8 64.2477 158.578 62.7394 158.578C61.2312 158.578 60.0085 159.8 60.0085 161.309C60.0085 161.473 60.1419 161.606 60.3065 161.606C60.471 161.606 60.6044 161.473 60.6044 161.309C60.6044 160.129 61.5603 159.173 62.7394 159.173Z" fill="white"/>
<rect x="71.3066" y="153.442" width="31.1977" height="2.81291" rx="1" fill="#E6EDF4"/>
<rect x="71.3066" y="159.324" width="39.6364" height="2.04575" rx="1" fill="#EEF3F8"/>
<rect x="71.3066" y="164.439" width="39.6364" height="2.04575" rx="1" fill="#EEF3F8"/>
<rect x="71.3066" y="169.554" width="88.4788" height="2.04575" rx="1" fill="#EEF3F8"/>
<path d="M214.62 156.895C214.62 154.847 216.28 153.187 218.327 153.187H233.159C235.207 153.187 236.867 154.847 236.867 156.895C236.867 158.943 235.207 160.603 233.159 160.603H218.327C216.28 160.603 214.62 158.943 214.62 156.895Z" fill="white"/>
<path fill-rule="evenodd" clip-rule="evenodd" d="M214.338 156.895C214.338 154.752 216.075 153.016 218.217 153.016H233.049C235.191 153.016 236.928 154.752 236.928 156.895C236.928 159.037 235.191 160.773 233.049 160.773H218.217C216.075 160.773 214.338 159.037 214.338 156.895ZM218.217 153.358C216.264 153.358 214.68 154.941 214.68 156.895C214.68 158.848 216.264 160.432 218.217 160.432H233.049C235.002 160.432 236.586 158.848 236.586 156.895C236.586 154.941 235.002 153.358 233.049 153.358H218.217Z" fill="#0A66C2"/>
<rect x="218.037" y="155.838" width="15.7205" height="2.0505" rx="1.02525" fill="#0A66C2" fill-opacity="0.4"/>
<rect x="148.32" y="109.36" width="190.697" height="27.3401" rx="5" fill="white" stroke="#F0ECEC"/>
<path d="M151.737 118.785C151.737 122.104 154.427 124.793 157.745 124.793C161.063 124.793 163.753 122.104 163.753 118.785C163.753 115.467 161.063 112.777 157.745 112.777C154.427 112.777 151.737 115.467 151.737 118.785Z" fill="#E16F6F"/>
<path fill-rule="evenodd" clip-rule="evenodd" d="M157.746 116.254C158.487 116.254 159.087 116.854 159.087 117.594C159.087 118.335 158.487 118.935 157.746 118.935C157.006 118.935 156.405 118.335 156.405 117.594C156.405 116.854 157.006 116.254 157.746 116.254ZM159.683 117.594C159.683 116.525 158.816 115.658 157.746 115.658C156.677 115.658 155.81 116.525 155.81 117.594C155.81 118.664 156.677 119.531 157.746 119.531C158.816 119.531 159.683 118.664 159.683 117.594Z" fill="white"/>
<path fill-rule="evenodd" clip-rule="evenodd" d="M157.746 119.531C158.925 119.531 159.881 120.487 159.881 121.666C159.881 121.831 160.015 121.964 160.179 121.964C160.344 121.964 160.477 121.831 160.477 121.666C160.477 120.158 159.254 118.935 157.746 118.935C156.238 118.935 155.015 120.158 155.015 121.666C155.015 121.831 155.149 121.964 155.313 121.964C155.478 121.964 155.611 121.831 155.611 121.666C155.611 120.487 156.567 119.531 157.746 119.531Z" fill="white"/>
<rect x="166.313" y="113.8" width="31.1977" height="2.81291" rx="1" fill="#E6EDF4"/>
<rect x="166.313" y="119.682" width="39.6364" height="2.04575" rx="1" fill="#EEF3F8"/>
<rect x="166.313" y="124.797" width="39.6364" height="2.04575" rx="1" fill="#EEF3F8"/>
<rect x="166.313" y="129.911" width="88.4788" height="2.04575" rx="1" fill="#EEF3F8"/>
<path d="M309.626 117.252C309.626 115.205 311.286 113.544 313.334 113.544H328.166C330.214 113.544 331.874 115.205 331.874 117.252C331.874 119.3 330.214 120.96 328.166 120.96H313.334C311.286 120.96 309.626 119.3 309.626 117.252Z" fill="white"/>
<path fill-rule="evenodd" clip-rule="evenodd" d="M309.345 117.252C309.345 115.11 311.082 113.373 313.224 113.373H328.056C330.198 113.373 331.934 115.11 331.934 117.252C331.934 119.394 330.198 121.131 328.056 121.131H313.224C311.082 121.131 309.345 119.394 309.345 117.252ZM313.224 113.715C311.27 113.715 309.687 115.299 309.687 117.252C309.687 119.206 311.27 120.789 313.224 120.789H328.056C330.009 120.789 331.593 119.206 331.593 117.252C331.593 115.299 330.009 113.715 328.056 113.715H313.224Z" fill="#0A66C2"/>
<rect x="313.044" y="116.195" width="15.7205" height="2.0505" rx="1.02525" fill="#0A66C2" fill-opacity="0.4"/>
<rect x="148.32" y="109.36" width="190.697" height="27.3401" rx="5" fill="url(#paint0_linear_37_7680)"/>
<path fill-rule="evenodd" clip-rule="evenodd" d="M361.932 85.2244C387.157 79.0885 411.468 98.1948 411.468 124.156C411.468 150.357 386.733 169.507 361.367 162.945L314.742 150.884L319.644 131.935L366.269 143.996C379.244 147.353 391.895 137.557 391.895 124.156C391.895 110.877 379.46 101.104 366.558 104.242L319.506 115.688L314.88 96.6694L361.932 85.2244Z" fill="#D1D2F0"/>
<mask id="mask0_37_7680" style="mask-type:alpha" maskUnits="userSpaceOnUse" x="314" y="84" width="98" height="81">
<path fill-rule="evenodd" clip-rule="evenodd" d="M361.932 85.2244C387.157 79.0885 411.468 98.1948 411.468 124.156C411.468 150.357 386.733 169.507 361.367 162.945L314.742 150.884L319.644 131.935L366.269 143.996C379.244 147.353 391.895 137.557 391.895 124.156C391.895 110.877 379.46 101.104 366.558 104.242L319.506 115.688L314.88 96.6694L361.932 85.2244Z" fill="black"/>
</mask>
<g mask="url(#mask0_37_7680)">
<path d="M318.553 117.247L313.61 96.9017L324.908 94.0955L330.556 114.441L318.553 117.247Z" fill="#E1E2FF"/>
<path d="M313.671 150.742L318.676 131.075L329.923 133.978L325.512 154.048L313.671 150.742Z" fill="#E1E2FF"/>
</g>
<path d="M298.71 133L312.894 140.325L303.832 140.325L303.832 143.024L288.072 133.771L298.71 136.47L298.71 133Z" fill="#FFC52F"/>
<path d="M295.105 111.155L313.61 109.23L303.855 105.312L305.048 102.343L283.994 105.707L296.638 107.338L295.105 111.155Z" fill="#FFC52F"/>
<rect x="8.8855" width="333.549" height="203" rx="5" fill="url(#paint1_linear_37_7680)"/>
<path d="M16.1037 40.8412V35.821C16.1037 35.2688 15.656 34.821 15.1037 34.821H2.00635C1.45406 34.821 1.00635 35.2688 1.00635 35.821V40.8407C1.00635 41.1298 1.13146 41.4048 1.34942 41.5947L6.39142 45.9878C6.60938 46.1777 6.73449 46.4527 6.73449 46.7418V46.9026C6.73449 47.1964 6.60527 47.4754 6.38115 47.6654L1.3597 51.9223C1.13557 52.1123 1.00635 52.3913 1.00635 52.6851V59.9898C1.00635 60.542 1.45406 60.9898 2.00635 60.9898H15.1037C15.656 60.9898 16.1037 60.542 16.1037 59.9898V52.6847C16.1037 52.3911 15.9747 52.1124 15.7509 51.9224L10.737 47.6654C10.5132 47.4754 10.3842 47.1966 10.3842 46.9031V46.7413C10.3842 46.4525 10.5091 46.1777 10.7267 45.9878L15.7612 41.5947C15.9788 41.4048 16.1037 41.13 16.1037 40.8412Z" fill="#EAEAFF"/>
<rect y="32.8086" width="17.1103" height="2.01298" fill="#767AE8"/>
<rect y="60.989" width="17.1103" height="2.01298" fill="#767AE8"/>
<path d="M8.96252 37.3282C9.98013 37.4489 12.2479 37.4006 13.1783 36.2422C14.3413 34.7942 15.6496 42.9393 8.96252 37.3282Z" fill="#7579E2"/>
<path d="M15.6182 39.4275C15.9442 37.5807 14.3491 36.3838 13.4438 36.067C15.0442 36.7783 12.1325 39.0936 10.6106 38.227C9.52372 37.6081 9.5231 36.2715 6.38411 35.6252C4.63903 35.2659 3.5325 35.9029 2.85546 36.8802C1.48129 38.8638 3.00805 41.3735 4.91284 42.855L4.98822 42.9136C6.89715 44.3983 8.01367 46.6812 8.01367 49.0996V49.3937C8.01367 51.7459 6.87514 53.9525 4.95825 55.3157L2.69382 56.9259C2.19758 57.2788 1.90284 57.8501 1.90284 58.459C1.90284 59.4979 2.74506 60.3401 3.78398 60.3401H13.7607C14.7866 60.3401 15.6182 59.5084 15.6182 58.4825C15.6182 57.8615 15.3078 57.2815 14.7911 56.9369L12.1507 55.1767C10.2448 53.9061 9.10004 51.767 9.10004 49.4764C9.10004 47.1858 10.2716 45.0778 12.0414 43.6235C13.7601 42.2113 15.4173 40.5664 15.6182 39.4275Z" fill="#A2A5F9"/>
<defs>
<linearGradient id="paint0_linear_37_7680" x1="345.51" y1="116.879" x2="148.32" y2="116.879" gradientUnits="userSpaceOnUse">
<stop offset="0.250504" stop-color="#F3F2EF"/>
<stop offset="1" stop-color="white" stop-opacity="0"/>
</linearGradient>
<linearGradient id="paint1_linear_37_7680" x1="175.66" y1="159.939" x2="175.66" y2="203" gradientUnits="userSpaceOnUse">
<stop stop-color="#F7F8FE" stop-opacity="0"/>
<stop offset="1" stop-color="#F7F8FE"/>
</linearGradient>
</defs>
</svg>
