<svg width="142" height="31" viewBox="0 0 142 31" fill="none" xmlns="http://www.w3.org/2000/svg">
<path d="M0 3.95145C0 1.86658 1.69013 0.176453 3.775 0.176453H26.225C28.3099 0.176453 30 1.86658 30 3.95145V26.4015C30 28.4863 28.3099 30.1765 26.225 30.1765H3.775C1.69013 30.1765 0 28.4863 0 26.4015V3.95145Z" fill="#6E58F1"/>
<path d="M4.33252 12.866C4.33252 10.2782 6.4223 8.18045 9.00017 8.18045H9.26863C10.3591 8.18045 11.2431 9.06782 11.2431 10.1625V15.5695C11.2431 16.6641 10.3591 17.5515 9.26863 17.5515H9.00017C6.4223 17.5515 4.33252 15.4537 4.33252 12.866Z" fill="white"/>
<path d="M12.3021 9.00782C12.3021 8.50529 12.5962 8.04962 13.053 7.84414L19.8478 4.78809C20.6882 4.4101 21.6374 5.02734 21.6374 5.95177V19.8813C21.6374 20.8117 20.677 21.4288 19.8353 21.0393L13.0406 17.8947C12.5904 17.6864 12.3021 17.2342 12.3021 16.7367V16.0918C12.3021 15.5613 12.6294 15.0862 13.1238 14.8988L16.911 13.4639C17.4588 13.2563 17.4588 12.4785 16.911 12.2709L13.1238 10.836C12.6294 10.6486 12.3021 10.1735 12.3021 9.64298V9.00782Z" fill="white"/>
<path d="M25.6662 13.9819V13.6979C25.6662 12.1296 24.3997 10.8582 22.8373 10.8582C22.7592 10.8582 22.6959 10.9218 22.6959 11.0002V16.6796C22.6959 16.758 22.7592 16.8216 22.8373 16.8216C24.3997 16.8216 25.6662 15.5502 25.6662 13.9819Z" fill="white"/>
<path d="M8.99146 19.3656C8.99146 19.0867 9.21662 18.8607 9.49437 18.8607H12.1257C12.4034 18.8607 12.6286 19.0867 12.6286 19.3656V23.8505C12.6286 24.8587 11.8144 25.676 10.81 25.676L-nan -nanL10.81 25.676C9.80566 25.676 8.99146 24.8587 8.99146 23.8505V19.3656Z" fill="white"/>
<path d="M44.3194 15.9209C45.5694 16.061 46.2638 16.7089 46.2638 17.7594C46.2638 18.5999 45.5694 19.3178 44.684 19.3178C43.9201 19.3178 43.3125 19.1252 42.7223 18.3723L40.5001 20.0182C41.7327 21.384 43.2084 21.9268 44.684 21.9268C46.9582 21.9268 49.0588 20.1057 49.0588 17.5668C49.0588 15.0454 47.236 13.5396 45.0312 13.3995C43.6597 13.312 43.2257 12.7692 43.2257 12.1738C43.2257 11.4559 43.7118 11.0182 44.4236 11.0182C44.875 11.0182 45.4478 11.2984 45.7951 11.6661L47.913 10.1077C46.9235 8.91703 45.7083 8.42676 44.4236 8.42676C42.6355 8.42676 40.6216 9.98512 40.6216 12.1913C40.6216 14.24 42.0799 15.6583 44.3194 15.9209Z" fill="white"/>
<path d="M59.0526 17.2867C59.0526 16.1135 59.8685 15.1505 60.9449 15.1505C61.9344 15.1505 62.7504 15.9384 62.7504 17.2867V21.6991H65.1982V17.2867C65.1982 14.7303 63.8962 12.6641 61.2053 12.6641C60.3025 12.6641 58.9137 12.9443 58.0804 14.0649C57.5596 13.2594 56.3965 12.6641 55.1118 12.6641C54.3479 12.6641 53.3584 12.9793 52.9591 13.4696V12.8567H50.4939V21.6991H52.9591V17.2867C52.9591 16.1135 53.775 15.1505 54.6951 15.1505C55.8062 15.1505 56.5874 15.7633 56.5874 17.2867V21.6991H59.0526V17.2867Z" fill="white"/>
<path d="M72.8963 12.8567V13.4696C72.5144 13.0493 71.5422 12.6641 70.761 12.6641C68.4173 12.6641 66.4556 14.7303 66.4556 17.2867C66.4556 19.8081 68.3652 21.8917 70.761 21.8917C71.5596 21.8917 72.5144 21.5766 72.8963 21.0688V21.6991H75.3615V12.8567H72.8963ZM71.004 19.4229C69.8756 19.4229 68.9555 18.5474 68.9555 17.2867C68.9555 16.0435 69.8756 15.1505 71.004 15.1505C72.1498 15.1505 73.0005 16.0435 73.0005 17.2867C73.0005 18.5474 72.1498 19.4229 71.004 19.4229Z" fill="white"/>
<path d="M82.1112 12.6991C81.8855 12.6641 81.7119 12.6641 81.5036 12.6641C80.8265 12.6641 80.0974 12.8917 79.5592 13.4696V12.8567H77.094V21.6991H79.5592V17.2867C79.5592 15.8684 80.3751 15.1505 81.33 15.1505C81.6077 15.1505 81.8681 15.1855 82.1112 15.2731V12.6991Z" fill="white"/>
<path d="M88.336 15.1505V12.8567H86.2527V9.89757L83.7876 11.7011V12.8567H82.4682V15.1505H83.7876V18.0396C83.7876 20.3334 85.6625 21.8917 88.2839 21.8917V19.4229C87.1555 19.4229 86.2527 18.9676 86.2527 17.9696V15.1505H88.336Z" fill="white"/>
<path d="M89.4701 8.65438V21.6991H91.9353V8.65438H89.4701Z" fill="white"/>
<path d="M99.9591 18.5299C99.5598 19.1602 98.8133 19.4229 98.0668 19.4229C97.8064 19.4229 97.5633 19.4054 97.3376 19.3178L102.233 15.7808C101.695 14.1349 100.029 12.6641 97.8585 12.6641C95.3412 12.6641 93.31 14.7303 93.31 17.2867C93.31 19.8081 95.428 21.8917 98.0668 21.8917C99.6292 21.8917 101.174 21.1738 101.921 20.0532L99.9591 18.5299ZM95.8099 17.2867C95.8099 16.0435 96.73 15.1505 97.8585 15.1505C98.3272 15.1505 98.7265 15.3081 99.0737 15.5707L95.8794 17.8645C95.8273 17.6894 95.8099 17.4968 95.8099 17.2867Z" fill="white"/>
<path d="M109.55 12.8567V13.4696C109.168 13.0493 108.196 12.6641 107.415 12.6641C105.071 12.6641 103.109 14.7303 103.109 17.2867C103.109 19.8081 105.019 21.8917 107.415 21.8917C108.213 21.8917 109.168 21.5766 109.55 21.0688V21.6991H112.015V12.8567H109.55ZM107.658 19.4229C106.529 19.4229 105.609 18.5474 105.609 17.2867C105.609 16.0435 106.529 15.1505 107.658 15.1505C108.803 15.1505 109.654 16.0435 109.654 17.2867C109.654 18.5474 108.803 19.4229 107.658 19.4229Z" fill="white"/>
<path d="M119.824 8.65438V13.4696C119.442 13.0493 118.47 12.6641 117.688 12.6641C115.345 12.6641 113.383 14.7303 113.383 17.2867C113.383 19.8081 115.293 21.8917 117.688 21.8917C118.487 21.8917 119.442 21.5766 119.824 21.0688V21.6991H122.289V8.65438H119.824ZM117.931 19.4229C116.803 19.4229 115.883 18.5474 115.883 17.2867C115.883 16.0435 116.803 15.1505 117.931 15.1505C119.077 15.1505 119.928 16.0435 119.928 17.2867C119.928 18.5474 119.077 19.4229 117.931 19.4229Z" fill="white"/>
<path d="M125.532 19.2478C124.733 19.2478 124.195 19.8431 124.195 20.596C124.195 21.3139 124.733 21.9268 125.532 21.9268C126.348 21.9268 126.869 21.3139 126.869 20.596C126.869 19.8431 126.33 19.2478 125.532 19.2478Z" fill="white"/>
<path d="M134.862 12.8567V13.4696C134.48 13.0493 133.507 12.6641 132.726 12.6641C130.383 12.6641 128.421 14.7303 128.421 17.2867C128.421 19.8081 130.33 21.8917 132.726 21.8917C133.525 21.8917 134.48 21.5766 134.862 21.0688V21.6991H137.327V12.8567H134.862ZM132.969 19.4229C131.841 19.4229 130.921 18.5474 130.921 17.2867C130.921 16.0435 131.841 15.1505 132.969 15.1505C134.115 15.1505 134.966 16.0435 134.966 17.2867C134.966 18.5474 134.115 19.4229 132.969 19.4229Z" fill="white"/>
<path d="M140.274 11.2984C141.108 11.2984 141.75 10.6505 141.75 9.88007C141.75 9.16217 141.108 8.51431 140.274 8.51431C139.511 8.51431 138.851 9.17968 138.851 9.88007C138.851 10.6505 139.511 11.2984 140.274 11.2984ZM141.524 12.8567H139.059V21.6991H141.524V12.8567Z" fill="white"/>
</svg>
